<?xml version="1.0" standalone="no"?>
<!DOCTYPE svg PUBLIC "-//W3C//DTD SVG 20010904//EN"
 "http://www.w3.org/TR/2001/REC-SVG-20010904/DTD/svg10.dtd">
<svg version="1.0" xmlns="http://www.w3.org/2000/svg"
 width="700.000000pt" height="700.000000pt" viewBox="0 0 700.000000 700.000000"
 preserveAspectRatio="xMidYMid meet">
<metadata>
Created by potrace 1.14, written by Peter Selinger 2001-2017
</metadata>
<g transform="translate(0.000000,700.000000) scale(0.100000,-0.100000)"
fill="#000000" stroke="none">
<path d="M4113 6749 c-125 -43 -228 -160 -248 -284 -11 -70 -65 -417 -75 -485
-5 -36 -12 -76 -15 -90 -2 -14 -7 -41 -9 -60 -7 -47 -14 -99 -31 -200 -8 -47
-17 -105 -20 -130 -6 -46 -12 -80 -19 -115 -2 -11 -7 -42 -10 -70 -4 -27 -11
-75 -16 -105 -5 -30 -11 -68 -14 -85 -8 -56 -18 -120 -21 -135 -2 -8 -8 -51
-15 -95 -7 -44 -14 -89 -16 -100 -2 -10 -6 -37 -9 -60 -3 -22 -10 -65 -15 -95
-5 -30 -12 -73 -15 -95 -4 -22 -9 -53 -11 -70 -3 -16 -14 -88 -25 -160 -11
-71 -22 -141 -25 -155 -2 -14 -9 -56 -14 -95 -6 -38 -15 -97 -21 -130 -12 -64
-13 -73 -23 -150 -4 -27 -10 -63 -13 -80 -3 -16 -7 -40 -9 -53 -1 -12 -7 -53
-13 -90 -6 -37 -13 -77 -14 -89 -2 -12 -6 -25 -8 -28 -3 -3 -44 36 -90 87 -46
51 -91 99 -99 108 -8 9 -46 51 -85 95 -38 44 -74 85 -80 91 -5 6 -37 41 -70
79 -33 37 -69 78 -80 89 -11 12 -51 57 -90 101 -38 44 -72 82 -75 85 -3 3 -38
43 -79 90 -41 47 -81 92 -90 100 -9 8 -43 47 -76 85 -33 39 -62 72 -65 75 -3
3 -41 46 -85 95 -43 50 -96 108 -116 130 -20 22 -78 87 -129 145 -51 58 -125
141 -165 185 -39 44 -91 102 -114 129 -23 27 -48 54 -54 61 -7 7 -39 43 -72
81 -33 37 -71 80 -85 95 -14 15 -50 55 -80 90 -199 230 -266 274 -405 273 -65
0 -91 -5 -137 -26 -66 -31 -136 -95 -165 -153 -57 -112 -49 -260 19 -358 22
-33 39 -52 164 -192 39 -44 113 -127 164 -185 51 -58 123 -139 160 -180 37
-41 107 -120 155 -175 49 -55 120 -136 160 -180 40 -44 114 -127 165 -185 51
-58 121 -136 156 -175 34 -38 71 -79 81 -91 18 -21 139 -158 158 -178 6 -6 28
-31 49 -56 22 -25 72 -81 111 -125 40 -44 87 -98 106 -120 19 -21 41 -46 49
-55 8 -9 47 -52 85 -95 135 -153 161 -182 227 -255 36 -41 76 -86 88 -100 12
-14 51 -59 88 -99 119 -132 166 -185 237 -266 133 -152 185 -202 238 -229 133
-67 278 -48 386 50 39 35 90 108 95 136 1 7 5 22 9 33 5 16 56 322 72 440 3
17 7 46 10 65 13 79 57 357 60 380 7 51 16 106 20 130 3 14 7 39 9 55 8 51 16
105 37 240 11 72 27 171 34 220 8 50 16 105 19 123 3 17 8 47 11 65 3 17 7 43
10 57 2 14 7 45 10 70 7 48 42 271 49 306 2 12 7 45 11 74 4 29 9 62 11 74 2
11 6 38 9 61 4 22 17 110 31 195 14 85 27 169 30 185 2 17 6 41 9 55 3 14 7
48 10 75 4 28 8 57 10 65 4 13 16 88 30 192 2 15 8 53 14 85 5 32 12 76 15 98
7 48 17 112 22 140 2 11 13 81 24 155 12 74 23 146 25 160 7 37 7 140 0 175
-19 97 -98 196 -192 240 -70 34 -167 39 -240 14z"/>
<path d="M3377 6334 c-1 -1 -45 -4 -97 -8 -154 -10 -315 -35 -445 -68 -44 -11
-84 -21 -90 -22 -126 -29 -356 -113 -524 -192 -91 -43 -340 -181 -351 -194 -3
-3 -27 -21 -53 -39 -48 -33 -50 -42 -16 -71 5 -5 63 -70 119 -136 96 -112 164
-189 211 -238 l55 -57 149 85 c153 88 374 183 495 212 8 2 53 13 100 25 93 23
94 23 160 34 25 4 54 9 65 11 11 2 49 7 85 10 36 4 74 8 85 10 11 1 28 3 37 3
11 1 19 16 27 49 10 47 45 259 56 342 4 25 15 90 26 145 10 55 19 100 19 100
0 2 -112 0 -113 -1z"/>
<path d="M4825 5968 c-4 -29 -9 -62 -10 -73 -2 -11 -7 -40 -10 -65 -11 -79
-16 -112 -35 -230 -30 -179 -33 -218 -18 -233 7 -7 60 -46 117 -86 158 -112
205 -152 347 -297 218 -221 368 -439 497 -724 52 -114 117 -311 142 -430 2 -8
8 -35 14 -60 15 -67 30 -166 37 -250 13 -155 7 -474 -12 -575 -38 -207 -34
-190 -70 -326 -32 -123 -74 -231 -154 -394 -114 -232 -246 -420 -440 -626 -19
-20 -51 -54 -71 -76 -68 -72 -108 -104 -269 -215 -183 -126 -324 -204 -487
-269 -134 -53 -367 -117 -526 -143 -93 -16 -185 -21 -367 -21 -202 0 -293 6
-387 25 -27 5 -64 12 -83 14 -75 11 -316 81 -385 111 -16 7 -55 23 -85 35 -30
12 -107 48 -170 81 -454 238 -798 587 -1035 1050 -53 103 -129 287 -155 374
-34 117 -65 251 -76 330 -4 22 -9 58 -13 81 -21 115 -18 524 4 659 5 27 8 46
21 125 11 63 49 196 89 316 25 72 45 136 45 142 0 11 -293 354 -388 454 -30
32 -58 55 -62 53 -14 -9 -138 -300 -180 -422 -57 -165 -104 -338 -125 -463 -3
-19 -8 -42 -10 -50 -2 -8 -7 -40 -10 -70 -4 -30 -8 -66 -10 -80 -19 -140 -24
-424 -11 -590 12 -162 45 -366 80 -500 2 -8 11 -43 20 -76 62 -238 200 -557
338 -777 49 -79 128 -197 138 -207 3 -3 25 -32 50 -65 112 -151 269 -314 457
-477 111 -95 317 -237 451 -310 122 -66 331 -166 407 -196 114 -43 119 -45
125 -47 3 -1 37 -11 75 -23 164 -50 299 -79 470 -102 44 -6 91 -13 105 -15 99
-15 377 -21 495 -11 117 11 186 17 203 21 9 1 40 6 67 9 195 26 498 110 690
191 86 37 343 169 439 227 125 75 172 108 311 222 295 241 519 496 700 796
135 222 295 601 340 800 1 8 8 33 14 55 5 22 13 56 16 75 3 19 10 51 15 70 9
35 13 62 25 155 3 28 8 64 10 80 23 177 23 543 0 676 -2 13 -7 47 -10 74 -11
99 -31 204 -70 365 -34 140 -103 329 -178 485 -108 227 -211 408 -272 482 -5
6 -21 28 -35 48 -100 146 -404 465 -570 598 -141 113 -510 347 -547 347 -6 0
-14 -24 -18 -52z"/>
</g>
</svg>
