<?xml version="1.0" encoding="UTF-8" ?>
<!DOCTYPE svg PUBLIC "-//W3C//DTD SVG 1.1//EN" "http://www.w3.org/Graphics/SVG/1.1/DTD/svg11.dtd">
<svg width="400pt" height="400pt" viewBox="0 0 400 400" version="1.1" xmlns="http://www.w3.org/2000/svg">
<g id="#9a9c14ff">
<path fill="#9a9c14" opacity="1.00" d=" M 220.86 30.87 C 222.12 22.57 228.79 15.40 237.04 13.72 C 246.08 11.55 255.87 17.42 258.95 26.04 C 261.29 32.13 259.72 38.71 258.79 44.92 C 247.99 113.76 237.29 182.62 226.48 251.46 C 225.51 258.39 220.95 264.79 214.36 267.36 C 206.74 270.69 197.39 268.18 191.93 262.06 C 144.39 208.59 96.89 155.07 49.36 101.60 C 44.98 96.95 42.59 90.38 43.83 84.02 C 45.13 74.86 53.72 67.43 62.99 67.54 C 69.42 67.31 75.33 70.81 79.37 75.61 C 107.14 106.86 134.99 138.05 162.70 169.36 C 173.09 180.80 183.02 192.67 193.70 203.84 C 202.89 146.21 211.80 88.52 220.86 30.87 Z" />
</g>
<g id="#6e6f73ff">
<path fill="#6e6f73" opacity="1.00" d=" M 115.52 60.54 C 140.99 46.01 170.17 38.00 199.52 37.93 C 196.57 49.85 195.85 62.16 193.18 74.12 C 189.11 74.76 185.00 75.02 180.92 75.57 C 168.38 77.23 156.19 81.00 144.53 85.82 C 137.61 88.70 131.52 93.11 124.92 96.60 C 116.44 88.25 109.12 78.77 101.18 69.90 C 105.55 66.20 110.58 63.39 115.52 60.54 Z" />
<path fill="#6e6f73" opacity="1.00" d=" M 276.29 55.60 C 292.90 64.18 308.84 74.59 321.56 88.44 C 331.74 97.74 340.20 108.72 347.70 120.25 C 352.81 129.01 357.30 138.14 361.46 147.38 C 379.18 191.33 378.13 242.75 357.65 285.60 C 346.61 310.11 329.29 331.65 308.23 348.30 C 295.74 359.27 280.63 366.53 265.71 373.55 C 244.63 382.21 221.77 386.41 199.01 386.43 C 173.15 385.85 147.04 380.31 124.09 368.12 C 97.96 355.60 75.36 336.04 58.77 312.32 C 37.53 282.46 26.24 245.60 27.19 208.96 C 27.43 181.36 35.03 154.08 47.58 129.60 C 56.77 138.64 64.62 148.94 73.28 158.47 C 71.87 164.73 68.96 170.54 67.50 176.80 C 62.82 193.00 62.43 210.08 63.65 226.80 C 66.34 252.49 76.47 277.25 92.39 297.57 C 102.32 311.25 115.67 322.10 130.00 330.90 C 159.82 348.92 196.70 354.95 230.66 347.02 C 241.14 344.40 251.61 341.34 261.24 336.37 C 270.21 331.97 278.31 326.08 286.46 320.35 C 292.48 316.15 297.21 310.50 302.07 305.08 C 312.80 293.78 321.06 280.32 327.25 266.06 C 332.63 254.56 335.24 242.01 337.13 229.53 C 338.24 218.80 338.15 207.95 337.36 197.20 C 334.26 168.51 321.97 140.83 302.44 119.55 C 296.38 113.24 290.30 106.86 283.16 101.76 C 279.17 98.59 274.65 96.16 270.83 92.78 C 271.19 86.11 272.73 79.60 273.68 73.01 C 274.64 67.22 275.20 61.37 276.29 55.60 Z" />
</g>
</svg>
